<svg viewBox="0 0 230 230" fill="none" xmlns="http://www.w3.org/2000/svg"><g transform="translate(0, 3.5)">
<path d="M147 222C143.958 222 143.233 220.845 140.797 220.056C126.841 215.536 115.835 206.519 106.056 196.142C102.928 192.822 101.655 193.108 98.2456 195.073C84.7788 202.837 70.5793 208.582 54.5678 206.943C44.9497 205.958 36.7561 200.429 33.0034 190.23C29.4148 180.478 30.2762 170.385 32.1151 160.545C35.1887 144.098 42.5073 129.308 51.6107 114.517C52.9948 118.701 53.7653 122.366 55.3723 125.617C58.9568 132.87 59.3293 139.938 56.2944 147.522C53.0327 155.674 54.3796 163.815 58.8232 171.119C60.5431 173.946 63.6164 176.539 66.6695 177.85C74.3588 181.152 81.5116 177.622 88.945 175.067C67.5602 143.298 54.838 108.707 50.5298 69.7333C34.9534 74.4319 20.0319 78.933 4.39375 83.6503C5.2454 82.1061 5.5448 80.8856 6.32246 80.2542C19.0534 69.9167 33.6262 63.5831 49.4094 60.904C50.2976 51.5336 50.524 42.4364 52.149 33.5963C54.5026 20.7926 59.4223 9.207 72.1255 2.8947C82.5637 -2.29215 96.3717 2.21571 104.656 9.46526C112.749 16.5465 120.548 24.1131 127.497 32.3041C133.161 38.9816 137.41 46.8594 142.287 54.205C136.211 54.1351 131.162 52.3584 126.088 52.2836C121.749 52.2195 119.629 49.8222 116.876 47.4764C112.28 43.5597 107.744 39.3613 102.532 36.4424C97.8562 33.8234 92.6308 32.2125 86.6739 33.6033C79.0211 35.39 71.2029 48.2441 72.5719 57.5754C109.939 55.3954 145.856 61.5829 180.634 76.0823C185.854 63.7739 189.573 51.2787 191.078 38.128C191.292 36.2508 192.503 34.4876 193.252 32.6717C193.728 32.8709 194.203 33.0701 194.678 33.2692C195.12 35.9901 196.108 38.7522 195.905 41.4243C195.14 51.5273 194.514 61.6893 192.837 71.6612C191.095 82.0154 190.831 81.5457 199.412 86.9404C211.315 94.4241 221.859 103.416 227.138 117.131C229.134 122.317 229.979 130.362 227.709 134.909C220.711 148.924 208.182 154.9 193.979 159.199C180.389 163.312 166.495 163.069 152.645 163.963C151.464 164.039 150.258 163.722 148.553 163.531C152.337 159.172 155.957 155.555 158.896 151.451C161.433 147.908 164.769 146.388 168.656 144.968C175.005 142.648 181.364 140.112 187.247 136.824C193.289 133.447 197.224 124.293 195.654 119.239C193.402 111.988 188.692 106.537 182.603 101.555C180.274 105.529 178.035 109.087 176.052 112.78C167.202 129.259 156.373 144.396 143.438 157.8C134.195 167.378 123.683 175.725 113.895 184.792C112.952 185.665 112.316 188.519 112.916 189.157C119.907 196.599 127.063 203.894 134.388 211.008C138.383 214.888 142.783 218.35 147 222ZM141.279 80.0687C128.194 77.0265 115.163 73.7182 101.999 71.0651C91.9441 69.0385 81.0743 69.4516 70.8337 68.786C70.699 106.031 80.6606 139.359 99.568 170.204C131.275 151.619 154.799 126.172 172.641 93.8338C162.146 89.2596 152.062 84.8646 141.279 80.0687Z" fill="currentColor"/>
</g></svg>