<svg xmlns="http://www.w3.org/2000/svg" viewBox="0 0 228 221" fill="currentColor">
  <path d="M147.000000,222.000000
	C145.611115,222.000000 144.222214,222.000000 142.758453,221.728638
	C142.058105,220.979660 141.502853,220.285172 140.796753,220.056473
	C126.840851,215.536469 115.835251,206.518738 106.056320,196.141724
	C102.927643,192.821686 101.654900,193.107681 98.245605,195.073074
	C84.778831,202.836487 70.579346,208.582184 54.567791,206.942963
	C44.949726,205.958328 36.756149,200.428574 33.003410,190.230179
	C29.414776,180.477753 30.276215,170.384796 32.115120,160.544846
	C35.188740,144.097931 42.507275,129.308365 51.610714,114.516823
	C52.994785,118.701340 53.765278,122.366150 55.372318,125.617470
	C58.956844,132.869553 59.329277,139.937881 56.294426,147.522278
	C53.032688,155.673691 54.379635,163.814560 58.823181,171.118698
	C60.543091,173.945801 63.616402,176.538925 66.669464,177.849899
	C74.358818,181.151672 81.511597,177.622375 88.944962,175.066940
	C67.560150,143.298477 54.838032,108.706825 50.529762,69.733253
	C34.953396,74.431908 20.031881,78.933029 4.393746,83.650314
	C5.245399,82.106049 5.544804,80.885605 6.322458,80.254158
	C19.053429,69.916649 33.626186,63.583130 49.409386,60.903988
	C50.297600,51.533596 50.524048,42.436382 52.149017,33.596241
	C54.502556,20.792562 59.422298,9.206993 72.125511,2.894687
	C72.610970,2.653458 72.717102,1.648872 73.000000,0.999999
	C78.688042,1.000000 84.376083,1.000000 90.195023,1.271420
	C95.149681,4.130035 100.642387,5.952756 104.656456,9.465255
	C112.748863,16.546501 120.548370,24.113113 127.496613,32.304111
	C133.160995,38.981617 137.410431,46.859383 142.287247,54.204948
	C136.211197,54.135075 131.162338,52.358437 126.088364,52.283562
	C121.748878,52.219521 119.628639,49.822224 116.876045,47.476341
	C112.280357,43.559654 107.743942,39.361305 102.532394,36.442421
	C97.856232,33.823402 92.630821,32.212479 86.673920,33.603264
	C79.021065,35.390003 71.202927,48.244099 72.571930,57.575390
	C109.939362,55.395412 145.856033,61.582851 180.633865,76.082275
	C185.853928,63.773888 189.572571,51.278671 191.077560,38.127941
	C191.292374,36.250824 192.502655,34.487633 193.252213,32.671715
	C193.727615,32.870888 194.203018,33.070061 194.678406,33.269234
	C195.119812,35.990040 196.107803,38.752235 195.905426,41.424286
	C195.140305,51.527245 194.514160,61.689297 192.836960,71.661201
	C191.095459,82.015373 190.831345,81.545700 199.411972,86.940407
	C211.315323,94.424110 221.859314,103.415680 227.137680,117.130913
	C227.314865,117.591331 228.359634,117.717850 229.000000,118.000000
	C229.000000,123.354927 229.000000,128.709854 228.751923,134.192841
	C228.233063,134.514008 227.840271,134.646179 227.709061,134.908966
	C220.711380,148.923660 208.181976,154.899719 193.979080,159.198792
	C180.389252,163.312302 166.495483,163.069351 152.645096,163.962555
	C151.464127,164.038712 150.257828,163.722351 148.552795,163.531082
	C152.337311,159.172318 155.957169,155.555374 158.895996,151.450836
	C161.432922,147.907593 164.768509,146.388245 168.656189,144.967712
	C175.005371,142.647736 181.363617,140.111801 187.246658,136.823639
	C193.288605,133.446640 197.224091,124.293030 195.654068,119.238983
	C193.401718,111.988373 188.691528,106.536522 182.602615,101.554817
	C180.273788,105.529449 178.035507,109.086578 176.051788,112.780411
	C167.202454,129.258621 156.373459,144.396118 143.437592,157.800186
	C134.194641,167.377655 123.682632,175.724640 113.895340,184.791702
	C112.952354,185.665283 112.315948,188.518494 112.916107,189.157303
	C119.907021,196.598618 127.063087,203.893738 134.388336,211.008362
	C138.382751,214.887909 142.782867,218.349762 147.000000,222.000000z"/>
  <path d="M141.628876,80.269104
	C152.062241,84.864563 162.145813,89.259583 172.640518,93.833786
	C154.799240,126.171837 131.274521,151.618515 99.568047,170.203537
	C80.660599,139.359177 70.698952,106.031487 70.833725,68.786041
	C75.625755,69.097504 79.983536,69.364670 84.338821,69.667763
	C90.234833,70.078079 96.251717,69.906723 101.999031,71.065102
	C115.162529,73.718231 128.194000,77.026451 141.628876,80.269104z"/>
</svg>
