<svg viewBox="0 0 928 818" fill="currentColor" xmlns="http://www.w3.org/2000/svg">
<path d="M789.511 723.741C780.359 733.562 771.909 743.597 762.473 752.597C740.382 773.667 716.679 792.717 688.642 805.478C675.768 811.338 662.312 815.349 648.09 817.146C625.486 820.003 604.481 815.571 584.698 804.922C567.71 795.777 553.865 782.809 541.325 768.23C523.194 747.15 509.179 723.486 497.73 698.37C489 679.219 481.603 659.453 473.84 639.87C470.461 631.344 467.653 622.592 464.586 613.943C464.074 613.887 463.562 613.832 463.05 613.776C460.638 620.485 458.39 627.258 455.784 633.891C448.204 653.187 440.657 672.499 432.763 691.668C424.119 712.66 412.768 732.221 399.754 750.773C382.891 774.814 363.005 795.642 335.904 808.38C326.131 812.974 315.845 815.65 305.111 817.068C273.639 821.225 245.926 810.773 219.604 795.238C202.258 785.001 186.805 772.241 171.793 758.786C154.421 743.213 138.751 726.226 125.531 707.101C113.901 690.276 105.281 671.809 101.917 651.523C97.5558 625.224 102.9 600.699 118.496 578.842C130.291 562.314 145.598 549.536 162.834 538.988C182.061 527.221 202.628 518.447 224.161 511.932C235.291 508.564 246.537 505.579 257.753 501.812C253.656 502.091 249.561 502.564 245.461 502.611C235.007 502.733 224.545 502.855 214.095 502.598C208.204 502.453 202.289 501.834 196.459 500.943C184.55 499.121 172.585 497.45 160.836 494.843C144.018 491.112 127.969 484.937 112.701 476.95C90.5424 465.358 71.6302 449.92 56.1295 430.082C42.7117 412.91 32.7315 394.068 26.9293 373.238C23.5416 361.076 21.8096 348.419 19.8285 335.907C17.8354 323.319 16.3639 310.646 14.8442 297.988C13.9636 290.654 13.4637 283.275 12.7479 275.92C11.4453 262.536 10.0869 249.157 8.79998 235.771C8.37485 231.349 8.11459 226.911 7.75051 222.483C6.43048 206.429 5.08923 190.376 3.77661 174.321C3.401 169.727 2.96143 165.132 2.77935 160.529C1.73289 134.073 -0.0334706 107.613 0.000482385 81.1572C0.0282304 59.5362 5.26178 38.8078 19.1087 21.371C27.1889 11.1958 38.0697 4.85081 50.724 2.06047C76.7398 -3.67615 101.278 2.74029 125.34 11.9541C148.963 20.9995 170.994 33.1082 191.379 48.0285C203.877 57.1763 216.226 66.6279 227.86 76.8338C243.516 90.5676 258.95 104.64 273.497 119.528C288.462 134.843 302.573 151.034 316.457 167.353C331.302 184.803 345.838 202.547 359.782 220.721C373.244 238.266 386.256 256.201 398.602 274.546C414.106 297.584 429.058 321.012 443.601 344.67C450.963 356.648 456.901 369.501 463.874 382.7C466.054 378.282 467.743 374.293 469.903 370.577C481.259 351.038 492.406 331.366 504.268 312.136C514.164 296.095 524.599 280.357 535.43 264.93C547.966 247.076 560.815 229.411 574.232 212.213C587.925 194.661 602.264 177.599 616.717 160.661C626.561 149.123 637.007 138.093 647.336 126.977C655.117 118.603 662.681 109.945 671.153 102.314C687.339 87.7332 704.071 73.7572 720.635 59.5988C738.701 44.1571 759.084 32.1557 780.095 21.4219C798.905 11.8126 818.821 4.42827 839.811 1.20987C858.693 -1.68524 877.421 -0.957211 894.529 9.33981C906.859 16.7613 914.532 28.0113 919.628 41.0269C925.395 55.7603 928.081 71.174 927.748 87.0458C927.442 101.642 927.431 116.256 926.667 130.829C925.685 149.57 924.138 168.283 922.726 186.999C921.836 198.797 920.859 210.59 919.725 222.367C918.169 238.526 916.356 254.66 914.787 270.818C913.661 282.424 912.995 294.079 911.682 305.662C910.323 317.67 908.068 329.581 906.869 341.6C905.504 355.297 902.599 368.54 897.986 381.497C891.086 400.872 881.202 418.444 868.047 434.296C851.185 454.616 830.575 469.935 806.745 480.937C787.208 489.957 766.708 495.789 745.385 499.137C725.407 502.273 705.376 503.312 685.23 502.947C680.04 502.853 674.862 502.108 669.692 502.125C683.918 506.384 698.22 510.406 712.353 514.953C737.28 522.974 760.694 534.335 781.354 550.417C801.878 566.392 817.971 586.005 824.31 612.087C829.435 633.177 826.634 653.712 819.346 673.794C813.351 690.311 803.945 704.925 793.397 718.85C792.212 720.415 790.977 721.94 789.511 723.741Z"/>
</svg>
