<svg xmlns="http://www.w3.org/2000/svg" viewBox="0 0 24 24" fill="currentColor">
  <path d="M14.941 2.994H9.059C5.261 2.994 2.994 5.261 2.994 9.059v5.882c0 3.798 2.267 6.065 6.065 6.065h5.882c3.798 0 6.065-2.267 6.065-6.065V9.059c0-3.798-2.267-6.065-6.065-6.065zM9.059 4.494h5.882c2.54 0 4.565 2.025 4.565 4.565v5.882c0 2.54-2.025 4.565-4.565 4.565H9.059c-2.54 0-4.565-2.025-4.565-4.565V9.059c0-2.54 2.025-4.565 4.565-4.565zM12.75 4.494h-1.5v15h1.5v-15zM9.5 7A1.5 1.5 0 0 0 8 8.5 1.5 1.5 0 0 0 9.5 10 1.5 1.5 0 0 0 11 8.5 1.5 1.5 0 0 0 9.5 7zm5 4A1.5 1.5 0 0 0 13 12.5 1.5 1.5 0 0 0 14.5 14 1.5 1.5 0 0 0 16 12.5 1.5 1.5 0 0 0 14.5 11z"/>
</svg>
