<svg xmlns="http://www.w3.org/2000/svg" viewBox="0 0 24 24" fill="currentColor">
  <path d="M12.186 24h-.007c-3.581-.024-6.334-1.205-8.184-3.509C2.35 18.44 1.5 15.586 1.5 12.058V12c0-3.54.85-6.398 2.495-8.491C5.845 1.205 8.598.024 12.18 0h.014c2.746.02 5.043.725 6.826 2.098 1.96 1.498 3.106 3.718 3.407 6.598l-3.599.35c-.463-3.351-2.426-5.045-5.628-5.066h-.01c-2.322.016-4.056.767-5.154 2.232C7.044 7.505 6.5 9.76 6.5 12c0 2.249.547 4.509 1.544 6.01 1.101 1.638 2.854 2.39 5.175 2.406h.007c2.01-.015 3.525-.544 4.504-1.574.91-.96 1.37-2.284 1.37-3.93 0-.347-.022-.68-.065-.996H15.56c.065.322.097.659.097.996 0 1.036-.241 1.79-.716 2.242-.46.438-1.22.659-2.259.659h-.01c-1.066-.008-1.78-.272-2.18-.8-.388-.512-.584-1.34-.584-2.462v-.021c0-1.136.183-1.969.56-2.445.393-.497 1.074-.75 2.024-.75.816 0 1.46.23 1.91.683.394.4.617.943.671 1.621l3.57-.288c-.152-1.671-.805-2.964-1.944-3.848-1.086-.845-2.476-1.275-4.13-1.275-2.097 0-3.73.626-4.854 1.86C6.575 11.946 6 13.621 6 15.748v.02c0 2.204.616 3.907 1.832 5.062C9.038 21.962 10.7 22.588 12.193 22.6h.007c1.817 0 3.297-.494 4.404-1.469 1.076-.948 1.738-2.356 1.97-4.192l-3.553-.307c-.135.83-.427 1.445-.878 1.84-.419.366-.989.55-1.695.55h-.026c-.883-.007-1.54-.249-1.954-.72-.408-.465-.615-1.204-.615-2.197v-.02c0-.988.205-1.698.607-2.11.395-.405 1.031-.609 1.886-.609.774 0 1.374.189 1.785.562.415.377.663.95.74 1.706l3.573-.34c-.155-1.7-.82-3.026-1.978-3.942-1.1-.87-2.517-1.311-4.213-1.311-2.151 0-3.826.633-4.976 1.881C6.376 11.52 5.8 13.208 5.8 15.37c0 2.2.607 3.902 1.806 5.06C8.788 21.568 10.414 22.187 12.186 24z"/>
</svg>
