<svg viewBox="0 0 433 504" fill="currentColor" xmlns="http://www.w3.org/2000/svg">
<path fill-rule="evenodd" clip-rule="evenodd" d="M168.288 5.30139C192.988 0.472482 217.881 -1.04967 242.851 0.702754C275.417 2.98843 306.449 11.3863 335.21 27.2809C385.268 55.379 416.147 97.5304 431.921 151.386C433.571 157.022 432.493 158.83 426.7 160.404C417.549 162.89 408.327 165.125 399.205 167.714C394.513 169.045 392.088 167.6 390.74 162.934C386.1 146.87 379.793 131.492 370.989 117.214C350.105 83.3457 319.809 61.9507 281.841 51.5719C234.146 38.5344 186.764 40.033 140.968 59.3297C95.781 78.3697 68.9076 113.847 55.5107 160.188C47.9976 186.176 44.3724 212.754 43.2051 239.816C41.6187 276.592 45.212 312.628 56.626 347.655C65.9669 376.32 80.5763 401.791 103.965 421.606C125.764 440.074 151.127 450.959 178.887 456.129C215.311 462.912 251.704 461.581 287.001 450.249C325.233 437.974 353.749 413.892 366.239 374.673C377.06 340.698 368.268 308.556 339.91 285.294C333.175 279.769 330.391 280.705 328.381 289.012C323.647 308.572 316.799 327.214 304.975 343.776C289.581 365.336 268.308 377.206 242.637 381.672C221.682 385.318 200.763 385.283 180.576 377.749C149.626 366.197 130.35 344.204 125.417 311.324C120.391 277.821 137.883 245.69 168.341 229.498C185.135 220.569 203.127 216.569 221.986 215.42C240.32 214.302 258.578 214.561 276.853 216.385C284.779 217.177 286.313 214.977 284.344 207.069C277.176 178.287 256.599 162.065 226.987 161.72C217.133 161.606 207.371 161.833 197.824 164.788C186.378 168.331 176.641 174.463 168.818 183.5C165.971 186.788 163.462 187.097 159.855 184.546C151.97 178.967 143.784 173.814 135.81 168.357C130.332 164.609 130.087 163.092 134.315 158.02C157.65 130.032 187.668 116.964 223.985 118.021C245.682 118.653 266.281 123.238 284.614 135.396C309.787 152.091 322.532 176.72 328.379 205.495C329.831 212.642 330.692 219.938 331.35 227.209C331.732 231.433 334.606 232.651 337.631 234.081C357.356 243.403 374.548 255.947 387.951 273.386C402.117 291.818 410.576 312.537 412.465 335.708C416.821 389.143 395.089 430.967 353.812 463.21C324.171 486.364 289.59 497.702 252.475 501.96C210.744 506.747 170.029 502.387 130.66 487.774C88.0598 471.962 56.6623 442.967 34.8047 403.475C17.165 371.604 7.63254 337.172 3.03025 301.165C-0.875169 270.61 -0.873964 240.051 2.27732 209.506C6.48785 168.695 16.5003 129.544 38.2988 94.2301C68.4359 45.408 112.106 16.2851 168.288 5.30139ZM281.73 261.564C258.321 257.416 234.861 256.667 211.312 260.027C200.625 261.552 190.523 264.741 182.162 271.924C171.031 281.488 164.463 293.082 167.462 308.302C169.819 320.264 177.798 327.864 188.378 332.744C212.722 343.973 236.842 345.83 259.48 328.712C273.498 318.112 280.734 303.041 285.025 285.934C286.2 279.818 287.291 274.137 287.276 268.261C287.266 264.234 285.873 262.298 281.73 261.564Z"/>
</svg>
