<svg xmlns="http://www.w3.org/2000/svg" viewBox="0 0 3840 2973" fill="currentColor">
  <!-- Central column -->
  <path d="M1443.826172,2731.970703
    C1443.826660,1836.990479 1443.827393,943.003418 1443.831665,49.016388
    C1443.831665,43.683384 1443.704346,38.342453 1443.944580,33.019119
    C1444.368530,23.622667 1446.536987,21.716709 1455.704590,23.317471
    C1468.835571,25.610304 1481.994995,27.873930 1494.976196,30.869139
    C1566.741089,47.427567 1638.628052,63.505325 1710.130737,81.136200
    C1763.508301,94.297821 1816.540039,108.957207 1869.416992,124.032349
    C1947.934326,146.417557 2026.395752,169.049820 2104.483398,192.879410
    C2196.285156,220.894012 2287.880615,249.651901 2377.697754,283.680756
    C2451.961426,311.816803 2524.550781,343.672363 2594.173584,382.028259
    C2651.857422,413.806885 2706.341797,450.276001 2756.064697,493.587372
    C2826.397705,554.851379 2881.813477,627.324463 2920.767090,712.322998
    C2949.439209,774.887329 2967.845703,840.468506 2979.913574,907.974487
    C2988.424072,955.583740 2993.411621,1003.598999 2996.507080,1051.879395
    C2999.644287,1100.807373 3001.120850,1149.781128 2999.564697,1198.717896
    C2996.981445,1279.966187 2986.406250,1360.109131 2960.388428,1437.596924
    C2940.698975,1496.237671 2913.475342,1550.838745 2873.202393,1598.317139
    C2813.276123,1668.964478 2737.351807,1710.654419 2645.697510,1723.849731
    C2587.529297,1732.224121 2530.046631,1727.622803 2472.940186,1715.072144
    C2420.264160,1703.495117 2370.095947,1684.768921 2321.063721,1662.613647
    C2312.929199,1658.937866 2308.959229,1654.001221 2309.780762,1645.039673
    C2310.205078,1640.412598 2309.834961,1635.713501 2309.834961,1631.046875
    C2309.833740,1335.051147 2309.978760,1039.055298 2309.644043,743.059998
    C2309.603760,707.450195 2307.775879,671.781311 2300.070068,636.733704
    C2294.956787,613.476807 2287.787109,591.028931 2275.277832,570.582153
    C2249.413818,528.307495 2211.060059,505.268768 2162.374512,500.800446
    C2136.878418,498.460419 2115.786621,510.245605 2099.766602,530.243713
    C2081.970947,552.457947 2073.302246,578.551208 2068.333252,606.107971
    C2064.713135,626.184265 2063.804932,646.467224 2063.810547,666.834961
    C2063.855469,830.165955 2063.833984,993.496887 2063.833984,1156.827881
    C2063.833740,1748.152710 2063.833984,2339.477539 2063.830566,2930.802246
    C2063.830566,2935.802002 2063.981689,2940.812500 2063.709473,2945.798828
    C2063.270264,2953.851074 2061.518555,2955.174316 2053.567627,2952.757812
    C2037.943726,2948.009766 2022.423096,2942.921631 2006.853271,2937.994629
    C1926.465332,2912.555420 1846.060303,2887.170410 1765.691040,2861.672363
    C1706.287964,2842.826416 1646.936401,2823.818359 1587.551147,2804.916016
    C1544.046021,2791.068604 1500.507202,2777.326416 1457.018433,2763.427246
    C1444.175659,2759.322754 1443.975586,2758.805664 1443.843872,2744.977783
    C1443.805786,2740.973389 1443.830688,2736.968506 1443.826172,2731.970703z"/>
  <!-- Right wing -->
  <path d="M3193.758789,1856.078125
    C3289.910400,1871.290039 3383.973877,1891.739136 3475.583984,1922.240967
    C3533.734619,1941.602417 3592.277588,1960.038940 3648.131836,1985.706665
    C3688.294189,2004.163208 3726.262451,2026.169067 3759.650391,2055.413086
    C3777.801270,2071.311035 3793.768799,2089.177734 3805.667725,2110.334473
    C3832.287354,2157.665283 3830.603760,2204.540283 3802.688721,2250.668457
    C3787.099609,2276.428467 3765.421631,2296.668701 3742.078857,2315.176025
    C3699.786621,2348.707520 3652.840820,2374.517822 3604.432861,2397.962158
    C3565.653076,2416.743408 3525.311768,2431.488770 3484.827881,2445.986572
    C3397.297363,2477.332764 3309.871338,2508.971191 3222.368164,2540.394775
    C3145.529785,2567.988037 3068.622314,2595.388916 2991.786133,2622.988037
    C2905.542236,2653.965820 2819.368408,2685.139648 2733.118652,2716.101318
    C2652.512695,2745.036865 2571.826172,2773.747070 2491.215332,2802.669678
    C2435.385742,2822.700684 2379.638184,2842.959473 2323.829590,2863.048828
    C2281.189453,2878.397705 2238.511963,2893.641846 2195.847900,2908.923828
    C2193.651855,2909.710205 2191.460938,2910.546387 2189.208740,2911.132568
    C2182.556641,2912.864014 2180.891846,2911.681152 2180.296143,2904.658936
    C2180.042969,2901.677979 2180.144287,2898.663574 2180.144287,2895.664551
    C2180.138184,2788.008057 2180.134033,2680.351562 2180.144287,2572.695068
    C2180.145996,2555.143311 2180.106689,2554.947510 2196.441162,2549.093018
    C2247.890137,2530.653076 2299.398682,2512.379883 2350.879883,2494.030273
    C2436.891357,2463.373291 2522.896729,2432.699463 2608.909180,2402.045898
    C2725.058105,2360.652588 2841.214844,2319.281494 2957.362061,2277.884277
    C3032.699951,2251.032227 3108.082764,2224.304443 3183.326660,2197.190918
    C3206.588379,2188.808838 3229.090088,2178.469238 3248.454834,2162.762695
    C3255.585449,2156.979004 3262.217529,2149.990723 3267.266846,2142.354980
    C3277.425781,2126.992920 3275.485840,2113.021484 3262.963379,2099.654541
    C3255.793945,2092.001221 3247.162842,2086.482910 3237.720459,2082.016357
    C3211.468750,2069.598389 3183.437012,2063.921143 3154.947021,2060.100342
    C3110.170898,2054.095459 3065.240723,2054.454834 3020.279785,2057.498047
    C2970.572510,2060.862061 2921.520264,2068.471436 2873.864014,2083.114990
    C2841.710693,2092.994873 2810.024414,2104.429199 2778.275635,2115.584473
    C2706.908203,2140.660400 2635.663818,2166.087402 2564.309082,2191.199219
    C2490.755127,2217.085205 2417.114746,2242.724854 2343.540039,2268.552734
    C2293.546875,2286.102295 2243.602295,2303.790527 2193.635498,2321.415039
    C2191.750000,2322.079834 2189.898438,2322.906006 2187.960205,2323.343506
    C2182.940430,2324.476562 2181.135254,2323.324463 2180.449707,2318.270752
    C2180.049316,2315.316650 2180.151611,2312.284424 2180.151367,2309.287354
    C2180.139160,2196.298096 2180.141602,2083.308838 2180.142578,1970.319580
    C2180.142578,1968.986328 2180.138916,1967.652832 2180.165283,1966.319946
    C2180.407959,1954.077881 2181.027588,1952.702271 2192.486084,1948.986450
    C2224.816650,1938.502563 2257.019775,1927.529785 2289.687744,1918.202515
    C2351.873779,1900.447266 2414.790283,1885.524536 2478.302246,1873.284302
    C2548.677002,1859.721558 2619.363525,1847.963013 2690.796143,1841.629639
    C2729.923340,1838.160522 2769.159668,1835.568604 2808.402344,1833.858032
    C2843.329346,1832.335571 2878.349609,1831.656494 2913.298828,1832.282349
    C2950.234131,1832.943848 2987.213867,1834.609741 3024.029297,1837.612305
    C3070.828613,1841.429199 3117.488770,1846.968994 3164.193359,1851.915771
    C3173.791748,1852.932373 3183.320312,1854.609863 3193.758789,1856.078125z"/>
  <!-- Left wing -->
  <path d="M1269.482910,2281.498535
    C1283.996582,2276.220215 1297.779541,2271.213623 1311.570190,2266.227783
    C1313.447876,2265.548584 1315.328735,2264.820312 1317.268677,2264.383545
    C1320.829712,2263.582520 1323.258179,2265.003906 1323.704590,2268.693359
    C1324.103271,2271.987793 1324.144897,2275.340088 1324.145630,2278.666748
    C1324.166626,2375.327881 1324.173584,2471.989258 1324.151489,2568.650391
    C1324.147827,2584.330811 1323.768188,2584.831055 1308.707275,2587.473145
    C1248.951294,2597.955322 1189.008667,2607.155762 1128.513184,2612.184326
    C1100.306396,2614.529297 1072.056519,2616.440674 1043.797607,2618.046143
    C1024.186157,2619.160156 1004.525208,2619.391113 984.888123,2620.065186
    C970.247437,2620.567627 955.582581,2621.996094 940.975159,2621.534668
    C896.380310,2620.125732 851.790649,2618.342773 807.231262,2616.072754
    C749.274536,2613.120361 691.725525,2606.027100 634.414246,2597.131348
    C566.853516,2586.644531 499.878143,2573.105957 433.894135,2555.173584
    C392.743286,2543.990723 351.993744,2531.327637 311.086395,2519.253174
    C275.583099,2508.773926 240.395645,2497.355469 206.489059,2482.368896
    C165.755173,2464.364258 127.289566,2442.570312 93.363365,2413.393555
    C69.092865,2392.520752 48.497116,2368.638184 35.414536,2339.124512
    C10.537469,2283.002686 21.555914,2232.510254 60.431381,2186.803955
    C73.696320,2171.208252 89.695656,2158.652832 106.430130,2146.999512
    C155.854691,2112.581787 209.208435,2085.257812 263.609344,2059.805908
    C335.284668,2026.271851 409.926025,2000.413574 484.403015,1974.087158
    C568.611511,1944.320435 652.670959,1914.132324 736.821594,1884.201660
    C801.505066,1861.194946 866.247131,1838.352905 930.931458,1815.348633
    C1019.793945,1783.745483 1108.621948,1752.045044 1197.473999,1720.412598
    C1235.148926,1706.999756 1272.846802,1693.650757 1310.538330,1680.284668
    C1312.421875,1679.616699 1314.310059,1678.888184 1316.257812,1678.489868
    C1321.388062,1677.440674 1323.103882,1678.518433 1323.822876,1683.566650
    C1324.242920,1686.516846 1324.150024,1689.551514 1324.150391,1692.548218
    C1324.163940,1801.875366 1324.161133,1911.202515 1324.159790,2020.529663
    C1324.159790,2021.529541 1324.159546,2022.529785 1324.139526,2023.529419
    C1323.895508,2035.712402 1323.321533,2036.884155 1311.869385,2041.004272
    C1262.950195,2058.603027 1213.969482,2076.030762 1165.025635,2093.561035
    C1096.005737,2118.281982 1027.009888,2143.069824 957.982605,2167.770020
    C899.936584,2188.541016 841.857971,2209.220947 783.798401,2229.954102
    C748.021973,2242.730225 712.114929,2255.157471 676.529907,2268.446533
    C651.482544,2277.800049 627.340271,2289.212891 607.372864,2307.640381
    C603.003113,2311.673584 599.050903,2316.328125 595.655334,2321.216797
    C584.192749,2337.719238 586.303955,2355.963135 602.066162,2368.299316
    C610.888428,2375.204102 620.760315,2381.218506 630.982544,2385.795410
    C656.754700,2397.334961 684.283081,2402.500732 712.179688,2405.998291
    C747.013306,2410.365723 782.002930,2411.212402 816.968384,2409.566162
    C882.805115,2406.466309 947.689758,2397.089111 1010.237427,2375.394531
    C1048.645752,2362.072998 1086.708618,2347.756104 1124.931030,2333.898438
    C1172.869873,2316.517578 1220.813232,2299.149902 1269.482910,2281.498535z"/>
</svg>
