<svg width="512" height="512" viewBox="0 0 512 512" fill="none" xmlns="http://www.w3.org/2000/svg">
<rect width="512" height="512" fill="#B8D84E"/>
<path d="M276.719 74.2182C287.656 72.8202 297.401 78.2159 302.137 88.2002C303.937 92.0056 304.672 96.2256 304.265 100.414C303.636 107.222 299.408 119.143 297.481 126.125C289.957 153.388 280.078 179.253 270.414 205.8C277.712 206.68 294.831 206.218 302.685 206.211L364.786 206.132C373.528 206.124 384.511 205.61 392.807 206.634C406.366 208.308 417.376 220.331 420.871 233.141C425.588 250.424 414.666 259.019 403.998 270.223C352.724 324.077 300.605 378.013 247.994 430.731C244.32 434.412 238.867 436.647 233.856 437.899C224.767 438.822 213.107 433.325 208.469 425.346C205.239 419.877 205.77 413.597 206.749 407.574C209.276 392.019 215.754 377.275 220.775 362.377C227.003 343.415 232.874 324.339 238.387 305.157C234.394 305.479 226.165 305.113 221.615 305.129L184.616 305.228C164.633 305.188 144.012 305.578 124.08 304.823C119.07 304.226 110.233 303.593 105.919 301.008C90.8821 291.998 85.4249 271.761 94.2183 256.42C96.5215 252.404 99.1495 247.612 102.203 244.338C150.167 190.483 206.174 134.571 259.674 83.5404C265.54 78.8265 269.544 76.55 276.719 74.2182Z" fill="#614596"/>
</svg>
