<svg width="512" height="512" viewBox="0 0 512 512" fill="none" xmlns="http://www.w3.org/2000/svg">
<rect width="512.001" height="512" rx="124" fill="#7C3AED"/>
<path d="M343.327 372.089C341.855 376.789 340.942 379.948 336.451 379.948C328.23 380.11 257.815 380.102 253.057 379.975C248.091 379.842 246.556 377.301 248.426 369.671C250.295 362.04 251.435 360.182 240.418 360.182C231.647 360.182 228.454 359.966 218.437 359.966C210.456 359.966 210.497 360.182 207.703 368.302C205.772 373.909 205.579 380.5 199.147 380.5C190.711 380.5 117.908 380.5 109.857 380.5C100.357 380.5 102.88 372.191 104.377 367.342C114.699 333.913 126.933 293.759 137.739 257.838C139.656 251.465 140.218 247.185 162.297 242.554C184.376 237.923 181.933 237.485 203.685 232.52C219.6 228.887 219.423 227.685 221.916 219.118C228.021 198.137 221.916 219.118 228.021 198.137C230.125 190.906 228.173 189.864 203.685 186.354C193.775 184.934 204.195 186.386 181.696 182.845C159.198 179.304 157.303 179.337 158.326 173.651C159.036 169.707 166.532 140.928 167.674 138.003C170.493 130.84 171.53 131.517 201.31 131.517C258.77 131.517 327.832 131.517 385.195 131.517C413.663 131.517 413.969 131.517 411.017 141.652C404.62 163.615 411.017 141.652 402.597 170.561C398.892 183.28 387.14 183.365 363.572 186.705C330.209 191.433 363.572 186.705 330.209 191.433C315.24 193.554 316.222 193.787 313.205 203.189C310.187 212.592 310.727 213.364 308.034 222.906C306.374 228.793 305.752 233.066 318.301 236.379C341.693 242.554 358.884 247.045 368.778 249.571C378.672 252.097 375.765 261.915 373.594 269.779C371.422 277.642 349.923 351.038 343.327 372.089Z" fill="#E7FFC4"/>
</svg>
