<svg width="30" height="24" viewBox="0 0 30 24" fill="none" xmlns="http://www.w3.org/2000/svg">
<g clip-path="url(#clip0_89_9)">
<path d="M23.3168 23.1893C23.174 23.6423 23.0854 23.9468 22.6499 23.9468C21.8526 23.9624 15.0233 23.9616 14.5619 23.9494C14.0802 23.9366 13.9313 23.6917 14.1127 22.9562C14.294 22.2207 14.4044 22.0416 13.336 22.0416C12.4854 22.0416 12.1756 22.0208 11.2042 22.0208C10.4301 22.0208 10.4341 22.0416 10.163 22.8243C9.97585 23.3647 9.95713 24 9.33328 24C8.51517 24 1.45421 24 0.673422 24C-0.248027 24 -0.00329824 23.1991 0.141902 22.7318C1.14299 19.5097 2.32954 15.6394 3.37756 12.1772C3.56349 11.5629 3.61803 11.1504 5.75938 10.704C7.90072 10.2576 7.66381 10.2154 9.77344 9.73687C11.317 9.38668 11.2998 9.27085 11.5416 8.44507C12.1336 6.42287 11.5416 8.44507 12.1336 6.42287C12.3377 5.72591 12.1484 5.62541 9.77344 5.28711C8.81228 5.15022 9.82291 5.29026 7.64084 4.94895C5.45881 4.60765 5.27506 4.61079 5.37426 4.06278C5.44308 3.68264 6.1701 0.908732 6.28084 0.626812C6.55427 -0.0636058 6.65486 0.00164845 9.54312 0.00164974C15.1159 0.00165223 21.814 0.00164974 27.3775 0.00164974C30.1385 0.00164974 30.1681 0.0016497 29.8818 0.978496C29.2614 3.09538 29.8818 0.978496 29.0652 3.76493C28.7059 4.99088 27.5661 4.99903 25.2803 5.32093C22.0446 5.77664 25.2803 5.32093 22.0446 5.77664C20.5928 5.98109 20.688 6.00356 20.3954 6.90982C20.1027 7.8161 20.1551 7.89047 19.8939 8.81026C19.7329 9.37761 19.6725 9.78949 20.8896 10.1088C23.1583 10.704 24.8256 11.1369 25.7852 11.3803C26.7448 11.6238 26.4629 12.5701 26.2523 13.3281C26.0417 14.086 23.9565 21.1603 23.3168 23.1893Z" fill="#E7FFC4"/>
</g>
<defs>
<clipPath id="clip0_89_9">
<rect width="30" height="24" fill="white"/>
</clipPath>
</defs>
</svg>
